#!OML:ASF I:\golf\golf\golf 2\Subject 1\2002-09-07\Subject1.ASF
:FULLY-SPECIFIED
:DEGREES
359
root 1.84921 16.8874 -3.71174 37.8956 1.64766 0.94733
lowerback 32.3235 7.91 -2.47645
upperback 13.4921 9.38693 7.15364
thorax -3.33446 4.17652 5.73061
lowerneck -12.3072 -7.94842 -4.988
upperneck 9.89383 -8.91388 -7.34069
head 4.8798 -5.01363 -2.17589
rclavicle -9.22361e-014 -4.25399e-014
rhumerus 13.0147 16.2547 -52.4148
rradius 45.3243
rwrist -12.8416
rhand -20.3125 13.1864
rfingers 7.12502
rthumb 6.03811 -16.7076
lclavicle -9.22361e-014 -4.25399e-014
lhumerus 15.815 -64.9948 58.9559
lradius 67.035
lwrist -13.0451
lhand -40.1922 10.8184
lfingers 7.12502
lthumb -13.1531 40.3835
rfemur -68.4786 -14.3736 23.3984
rtibia 56.3751
rfoot -18.501 -7.91563
rtoes -3.84312
lfemur -74.9777 3.58402 -24.9822
ltibia 42.89
lfoot -3.69559 -19.295
ltoes -6.63456
360
root 1.8087 16.8966 -3.74133 37.4322 1.73096 0.798995
lowerback 31.9099 7.74754 -2.62303
upperback 13.292 9.16868 7.02049
thorax -3.36665 4.08387 5.76606
lowerneck -12.6053 -7.74553 -4.95626
upperneck 10.6145 -8.55628 -7.41043
head 5.15717 -4.86572 -2.21218
rclavicle 1.11319e-013 1.98785e-014
rhumerus 11.6855 16.748 -53.5846
rradius 45.8363
rwrist -12.862
rhand -20.871 13.14
rfingers 7.12502
rthumb 5.4989 -16.7686
lclavicle 1.11319e-013 1.98785e-014
lhumerus 15.2436 -64.9917 59.4525
lradius 66.1548
lwrist -12.6645
lhand -39.8822 10.7642
lfingers 7.12502
lthumb -12.8542 40.3484
rfemur -67.9576 -14.2117 23.5754
rtibia 56.1939
rfoot -18.4572 -7.97499
rtoes -3.65162
lfemur -74.4712 3.75551 -24.6295
ltibia 42.6821
lfoot -3.68546 -19.249
ltoes -7.26802
361
root 1.76542 16.9114 -3.76835 36.866 1.82494 0.586634
lowerback 31.7037 7.59709 -2.6908
upperback 13.0765 8.98173 6.90208
thorax -3.48709 4.00597 5.74603
lowerneck -12.8978 -7.52822 -4.95681
upperneck 11.2318 -8.18379 -7.46393
head 5.40507 -4.70906 -2.23243
rclavicle -7.63333e-014 -2.34566e-014
rhumerus 10.3172 17.1089 -54.7111
rradius 46.528
rwrist -13.4423
rhand -20.8881 12.9172
rfingers 7.12502
rthumb 5.48238 -16.9919
lclavicle -7.63333e-014 -2.34566e-014
lhumerus 14.2747 -64.836 60.3902
lradius 65.324
lwrist -12.5102
lhand -39.6254 10.4703
lfingers 7.12502
lthumb -12.6067 40.0699
rfemur -67.2853 -14.0111 23.8043
rtibia 56.0037
rfoot -18.4387 -8.13675
rtoes -3.68656
lfemur -73.8386 3.92558 -24.1285
ltibia 42.4863
lfoot -3.68801 -19.1404
ltoes -7.46229
362
root 1.72115 16.9266 -3.794 36.2967 1.87126 0.391956
lowerback 31.5156 7.45937 -2.80689
upperback 12.8457 8.79482 6.76034
thorax -3.63214 3.92757 5.72407
lowerneck -13.1615 -7.29525 -4.78322
upperneck 11.754 -7.81517 -7.65884
head 5.60585 -4.55507 -2.31723
rclavicle 1.33583e-013 4.45278e-014
rhumerus 8.9362 17.4366 -55.8754
rradius 47.1777
rwrist -13.9453
rhand -21.1553 12.7546
rfingers 7.12502
rthumb 5.22445 -17.161
lclavicle 1.33583e-013 4.45278e-014
lhumerus 13.3215 -64.7331 61.3184
lradius 64.4642
lwrist -12.2027
lhand -39.5846 10.3098
lfingers 7.12502
lthumb -12.5673 39.9118
rfemur -66.591 -13.7658 23.9595
rtibia 55.8047
rfoot -18.4134 -8.31215
rtoes -3.88292
lfemur -73.1914 4.15813 -23.7316
ltibia 42.3019
lfoot -3.76871 -19.0514
ltoes -7.65308
363
root 1.67506 16.9398 -3.81934 35.7379 1.89298 0.132841
lowerback 30.9432 7.30816 -2.93118
upperback 12.8335 8.62284 6.43234
thorax -3.69007 3.875 5.94419
lowerneck -13.3726 -7.06924 -4.62513
upperneck 12.2284 -7.46684 -7.80579
head 5.78664 -4.40663 -2.38207
rclavicle 6.04305e-014 -9.54166e-015
rhumerus 7.61533 17.8292 -57.1035
rradius 47.5546
rwrist -14.101
rhand -22.1241 12.7869
rfingers 7.12502
rthumb 4.28893 -17.1497
lclavicle 6.04305e-014 -9.54166e-015
lhumerus 12.4338 -64.6928 62.1541
lradius 63.5589
lwrist -11.7707
lhand -39.382 10.4899
lfingers 7.12502
lthumb -12.372 40.1038
rfemur -65.927 -13.5381 24.2289
rtibia 55.6075
rfoot -18.4007 -8.39931
rtoes -4.2546
lfemur -72.5707 4.48241 -23.3243
ltibia 42.1115
lfoot -3.78652 -19.0081
ltoes -8.04776
364
root 1.62919 16.9546 -3.84593 35.1824 1.9891 -0.148534
lowerback 30.622 7.14342 -2.93482
upperback 12.6232 8.43559 6.32755
thorax -3.74844 3.7981 5.90706
lowerneck -13.6246 -6.82052 -4.63493
upperneck 12.7596 -7.07405 -7.75714
head 6.00896 -4.23248 -2.35909
rclavicle 1.59028e-014 4.77083e-014
rhumerus 6.33825 18.2487 -58.2064
rradius 47.8185
rwrist -14.3824
rhand -22.9041 12.9112
rfingers 7.12502
rthumb 3.5357 -17.0392
lclavicle 1.59028e-014 4.77083e-014
lhumerus 11.3292 -64.4806 63.26
lradius 62.7993
lwrist -11.5887
lhand -38.8928 10.5505
lfingers 7.12502
lthumb -11.9003 40.1923
rfemur -65.2781 -13.4117 24.6106
rtibia 55.4158
rfoot -18.4081 -8.42388
rtoes -4.23274
lfemur -71.9438 4.65668 -22.7253
ltibia 41.904
lfoot -3.68813 -18.8696
ltoes -8.3442
365
root 1.58225 16.9656 -3.87268 34.6391 2.07182 -0.245577
lowerback 30.2766 6.98606 -3.07582
upperback 12.4133 8.22206 6.20667
thorax -3.80501 3.70653 5.9406
lowerneck -13.8712 -6.55656 -4.59001
upperneck 13.2857 -6.66762 -7.74877
head 6.22619 -4.0525 -2.35376
rclavicle 9.54166e-015 1.27222e-014
rhumerus 5.06958 18.7938 -59.1262
rradius 48.1549
rwrist -15.1116
rhand -23.6152 12.8614
rfingers 7.12502
rthumb 2.84898 -17.0993
lclavicle 9.54166e-015 1.27222e-014
lhumerus 10.21 -64.21 64.4677
lradius 61.9974
lwrist -11.5248
lhand -38.4522 10.6003
lfingers 7.12502
lthumb -11.4754 40.2662
rfemur -64.65 -13.3113 24.7436
rtibia 55.2389
rfoot -18.3647 -8.49448
rtoes -3.91968
lfemur -71.2892 4.71296 -22.2972
ltibia 41.6635
lfoot -3.6055 -18.7386
ltoes -8.71749
366
root 1.53028 16.9797 -3.89738 34.0468 2.03 -0.361979
lowerback 29.6258 6.89288 -3.24396
upperback 12.4231 8.07435 6.05152
thorax -3.47956 3.6373 5.96059
lowerneck -14.1693 -6.40327 -4.41494
upperneck 13.6512 -6.44228 -7.78153
head 6.39084 -3.95353 -2.39382
rclavicle -9.54166e-015 -9.54166e-015
rhumerus 4.06113 18.9989 -60.0558
rradius 48.4132
rwrist -15.8324
rhand -25.1517 12.988
rfingers 7.12502
rthumb 1.36501 -16.9874
lclavicle -9.54166e-015 -9.54166e-015
lhumerus 9.99855 -63.9921 64.8349
lradius 61.0688
lwrist -11.4602
lhand -38.0825 10.6765
lfingers 7.12502
lthumb -11.1188 40.3619
rfemur -63.9573 -13.0857 24.808
rtibia 55.0548
rfoot -18.3769 -8.49599
rtoes -3.47532
lfemur -70.5761 4.99176 -22.0253
ltibia 41.4047
lfoot -3.51838 -18.7415
ltoes -8.75468
367
root 1.47891 17.0013 -3.92412 33.4316 1.97778 -0.604366
lowerback 29.1351 6.82701 -3.3736
upperback 12.3262 7.97602 5.95686
thorax -3.35653 3.59463 5.99098
lowerneck -14.5511 -6.23142 -4.3663
upperneck 14.2931 -6.13779 -7.81521
head 6.66729 -3.83129 -2.41873
rclavicle -1.59028e-014 1.98785e-014
rhumerus 2.87486 18.9578 -61.1176
rradius 48.6863
rwrist -16.0874
rhand -26.4516 13.1668
rfingers 7.12502
rthumb 0.10962 -16.8129
lclavicle -1.59028e-014 1.98785e-014
lhumerus 9.40855 -63.8517 65.5236
lradius 60.2471
lwrist -11.2766
lhand -37.8534 10.3774
lfingers 7.12502
lthumb -10.8978 40.0746
rfemur -63.2302 -12.8405 25.0361
rtibia 54.8433
rfoot -18.4037 -8.46803
rtoes -3.31333
lfemur -69.8514 5.3298 -21.6172
ltibia 41.1487
lfoot -3.35143 -18.7241
ltoes -8.47471
